<svg xmlns="http://www.w3.org/2000/svg" xmlns:xlink="http://www.w3.org/1999/xlink" version="1.1" id="Layer_1" x="0px" y="0px" width="100%" viewBox="0 0 4000 4000"  xml:space="preserve">
<linearGradient id="grad1" x1="0%" y1="0%" x2="100%" y2="0%">
	<stop offset="0%" style="stop-color:rgb(52,211,153);stop-opacity:1"/>
	<stop offset="100%" style="stop-color:rgb(59,130,246);stop-opacity:1"/>
</linearGradient>
<path fill="url(#grad1)" opacity="1.000000" stroke="white" stroke-width="17" d=" M1051.967041,2074.026367   C1039.705078,2068.799316 1028.066528,2063.986328 1017.432556,2054.477539   C1020.459290,2053.595215 1022.240295,2052.490479 1023.825500,2052.722656   C1028.735962,2053.441406 1033.587524,2054.600830 1038.434204,2055.710205   C1072.207886,2063.441650 1105.722778,2061.519043 1139.155273,2053.386230   C1171.555542,2045.504761 1201.115601,2031.200928 1229.080811,2013.507446   C1246.212280,2002.668579 1263.412720,1991.725586 1279.314819,1979.218018   C1294.705444,1967.112671 1308.226074,1952.661499 1323.003052,1939.738159   C1357.061035,1909.952637 1388.011108,1876.705688 1424.019775,1849.102295   C1464.857178,1817.797363 1508.557373,1791.234253 1555.303589,1769.680542   C1577.204468,1759.582397 1600.298950,1753.275269 1623.755493,1748.361816   C1647.144897,1743.462646 1670.716309,1739.432373 1694.209961,1735.031982   C1695.837524,1734.727051 1697.481201,1734.286377 1699.117798,1734.284302   C1727.765381,1734.248291 1756.544067,1732.555176 1785.026367,1734.730225   C1818.070801,1737.253662 1850.627686,1744.166748 1882.857300,1752.464844   C1914.645142,1760.649292 1944.305542,1773.755981 1973.689453,1787.929199   C2027.954224,1814.103027 2078.061035,1846.836914 2124.835449,1884.551880   C2163.410156,1915.655762 2200.928467,1948.067871 2238.981934,1979.820190   C2254.306152,1992.607178 2269.637939,2005.396484 2285.270020,2017.802124   C2311.060791,2038.269409 2335.776367,2060.472412 2363.319824,2078.268799   C2413.914307,2110.959473 2466.223389,2141.019287 2524.277100,2159.202881   C2543.636475,2165.266846 2563.318848,2169.868164 2583.560547,2172.044434   C2600.704102,2173.888184 2617.748291,2176.719482 2634.911133,2178.305908   C2647.459473,2179.465820 2660.151367,2180.024414 2672.740479,2179.626221   C2725.861816,2177.947266 2778.002930,2170.558838 2827.476807,2149.951660   C2861.370605,2135.833740 2893.215332,2117.809814 2923.753418,2097.467529   C2930.951416,2092.672607 2938.031006,2087.699951 2945.232178,2082.909180   C2946.734863,2081.909668 2948.532227,2081.352783 2951.458008,2081.978516   C2947.676270,2086.750488 2944.484619,2092.181641 2940.014648,2096.185059   C2914.501465,2119.035400 2889.800293,2142.997070 2862.708740,2163.832275   C2821.554443,2195.482666 2779.054443,2225.609375 2731.628174,2247.508301   C2690.480225,2266.508301 2647.843262,2281.826660 2603.447266,2291.180420   C2575.548584,2297.058350 2547.246582,2300.438965 2518.454102,2300.691650   C2498.195557,2300.869629 2477.846191,2301.050293 2457.849121,2299.231445   C2428.833740,2296.592529 2400.049805,2291.000488 2372.240479,2281.616699   C2332.501221,2268.207275 2292.544678,2255.169434 2256.598877,2232.909668   C2228.590820,2215.565186 2201.112061,2197.366943 2173.375977,2179.582520   C2138.288574,2157.084229 2106.313232,2130.361328 2072.827881,2105.687988   C2052.188965,2090.480225 2031.076050,2075.916504 2010.179443,2061.058838   C1969.398926,2032.063477 1926.414185,2006.799805 1881.953857,1983.849243   C1849.902466,1967.304321 1816.375610,1954.554077 1782.699829,1942.000488   C1754.251587,1931.395386 1724.904541,1924.424927 1694.890625,1920.319702   C1684.053589,1918.837646 1673.059937,1918.372803 1662.118774,1917.811035   C1648.187988,1917.095825 1634.220337,1916.062256 1620.300415,1916.417236   C1600.737671,1916.916016 1581.109253,1917.721313 1561.680176,1919.913940   C1529.677612,1923.525513 1499.343994,1933.299316 1470.987183,1948.646240   C1433.646484,1968.854980 1400.494507,1995.074097 1367.194336,2021.143921   C1354.158203,2031.349731 1339.903076,2040.078247 1325.771484,2048.778564   C1315.585938,2055.049561 1304.670044,2060.130371 1294.109131,2065.796143   C1273.389160,2076.912842 1250.811035,2082.124756 1228.192017,2087.743652   C1205.938599,2093.271484 1183.339233,2093.440918 1160.968628,2093.343994   C1124.005981,2093.183838 1087.415405,2088.380371 1051.967041,2074.026367  z"/>
<linearGradient id="grad1" x1="0%" y1="0%" x2="100%" y2="0%">
	<stop offset="0%" style="stop-color:rgb(52,211,153);stop-opacity:1"/>
	<stop offset="100%" style="stop-color:rgb(59,130,246);stop-opacity:1"/>
</linearGradient>
<path fill="url(#grad1)" opacity="1.000000" stroke="white" stroke-width="17" d=" M1587.445801,2231.371582   C1567.210449,2247.632324 1544.692993,2258.301025 1521.511963,2267.698486   C1510.415405,2272.197021 1499.328979,2276.890381 1487.888062,2280.332031   C1467.250854,2286.540527 1446.418579,2292.295898 1424.571167,2292.233154   C1407.916992,2292.185303 1391.241821,2292.458252 1374.614624,2291.719971   C1351.642944,2290.700928 1329.201538,2286.015381 1307.377930,2278.932129   C1289.368286,2273.086914 1271.713013,2266.159180 1253.830811,2259.910889   C1236.126465,2253.724854 1219.935425,2244.671143 1203.988770,2234.940918   C1168.371216,2213.208496 1135.312134,2188.109619 1104.141357,2160.446533   C1093.698853,2151.179199 1083.151001,2142.029053 1072.799194,2132.661865   C1069.721680,2129.877441 1067.147583,2126.536377 1064.342773,2123.450439   C1064.786255,2122.820557 1065.229736,2122.190674 1065.673218,2121.560791   C1071.141968,2124.334717 1076.576172,2127.179688 1082.085815,2129.869873   C1100.888184,2139.050537 1119.300049,2149.202393 1138.641602,2157.063477   C1162.776611,2166.872803 1188.300171,2171.587402 1214.472656,2172.278564   C1220.756836,2172.444336 1227.019653,2173.612549 1233.300171,2173.690430   C1288.441650,2174.373779 1338.650269,2158.278076 1385.392456,2129.584473   C1418.523804,2109.246094 1447.998291,2084.745605 1475.300415,2057.118896   C1497.241211,2034.917603 1519.782593,2013.101562 1546.765503,1996.705444   C1574.188599,1980.041870 1602.482300,1965.137207 1634.340454,1959.149048   C1658.819946,1954.547729 1683.438721,1952.673340 1708.611572,1955.194824   C1727.817017,1957.118530 1746.783691,1959.542847 1765.647827,1963.484863   C1785.571655,1967.648193 1804.650879,1974.284058 1823.448730,1981.889771   C1829.615234,1984.384766 1835.813110,1986.807373 1841.921753,1989.436890   C1843.602539,1990.160278 1845.013306,1991.510986 1847.839233,1993.468018   C1843.869385,1995.488525 1841.093872,1997.101318 1838.166016,1998.359131   C1818.931152,2006.623169 1802.504639,2018.966675 1787.433228,2033.250732   C1768.367554,2051.320312 1748.875854,2068.979736 1730.516235,2087.744141   C1712.384644,2106.275879 1695.508545,2126.031982 1677.938477,2145.119141   C1668.280762,2155.611084 1658.317993,2165.821777 1648.513062,2176.178467   C1643.256226,2181.731201 1638.330322,2187.633301 1632.746582,2192.831299   C1622.050415,2202.789062 1611.069336,2212.446533 1600.039795,2222.036377   C1596.288208,2225.298340 1592.034424,2227.982422 1587.445801,2231.371582  z"/>

<linearGradient id="grad1" x1="0%" y1="0%" x2="100%" y2="0%">
	<stop offset="0%" style="stop-color:rgb(52,211,153);stop-opacity:1"/>
	<stop offset="100%" style="stop-color:rgb(59,130,246);stop-opacity:1"/>
</linearGradient>

<path fill="#56BEED" opacity="1.000000" stroke="white" stroke-width="17" d=" M2750.019043,1891.034912   C2765.669922,1891.035034 2780.326416,1890.891724 2794.979004,1891.065063   C2818.596436,1891.344482 2842.213135,1891.764038 2865.826904,1892.268921   C2874.381104,1892.451904 2875.581787,1893.849609 2875.767822,1902.205566   C2875.775391,1902.538574 2875.766113,1902.871704 2875.770020,1903.204834   C2875.932373,1917.566772 2875.742920,1917.622803 2861.527588,1917.803467   C2839.575195,1918.082397 2817.625977,1918.839722 2795.674561,1918.880615   C2778.384521,1918.912842 2761.081299,1917.600342 2743.805176,1917.945190   C2728.902832,1918.242554 2714.003906,1919.767700 2699.150391,1921.226807   C2675.833984,1923.517090 2659.582764,1937.383301 2646.096680,1955.076050   C2624.721436,1983.118042 2603.024170,2010.882690 2578.008057,2035.820923   C2571.438965,2042.369507 2564.098877,2048.171143 2556.907227,2054.064209   C2538.262451,2069.341797 2515.864014,2074.255859 2492.708008,2075.555664   C2474.114746,2076.599609 2455.415527,2075.894043 2436.765625,2075.720703   C2426.041992,2075.621094 2421.819824,2072.922607 2419.412842,2065.583496   C2415.707031,2054.285156 2421.739746,2045.250610 2433.656982,2045.110718   C2455.303223,2044.856689 2476.973877,2044.462402 2498.597900,2045.198608   C2519.048096,2045.894897 2535.040039,2037.958496 2549.423340,2024.098633   C2575.851807,1998.632446 2599.039062,1970.343750 2622.353760,1942.160889   C2639.744385,1921.138550 2660.497314,1904.577515 2686.732666,1897.005493   C2700.895752,1892.917847 2716.208984,1892.684692 2731.047607,1891.134888   C2736.978027,1890.515625 2743.027588,1891.033691 2750.019043,1891.034912  z"/>
<linearGradient id="grad1" x1="0%" y1="0%" x2="100%" y2="0%">
	<stop offset="0%" style="stop-color:rgb(52,211,153);stop-opacity:1"/>
	<stop offset="100%" style="stop-color:rgb(59,130,246);stop-opacity:1"/>
</linearGradient>
<path fill="#54BDED" opacity="1.000000" stroke="white" stroke-width="17" d=" M2498.167969,1922.404419   C2501.375000,1930.596313 2499.788818,1937.693604 2496.000977,1944.188354   C2493.176758,1949.030884 2489.764160,1953.682251 2485.880615,1957.712402   C2481.936523,1961.804810 2476.988525,1964.296631 2470.781006,1964.261108   C2422.126221,1963.982666 2373.470459,1963.959595 2324.815674,1963.681152   C2319.211182,1963.649048 2313.606201,1962.590210 2308.013916,1961.905029   C2303.009521,1961.291992 2300.321777,1958.333862 2299.844727,1953.349854   C2299.749756,1952.357178 2299.790527,1951.351929 2299.754639,1950.352905   C2299.294678,1937.515259 2300.858154,1935.783325 2313.597900,1935.765747   C2347.594482,1935.718750 2381.591309,1935.757690 2415.587891,1935.743530   C2426.271240,1935.739014 2425.973145,1935.581909 2430.111816,1926.040283   C2432.469482,1920.605103 2435.427490,1915.230103 2439.088135,1910.596558   C2451.351807,1895.073486 2470.781738,1893.098145 2485.710205,1906.133545   C2490.583008,1910.388428 2493.897461,1916.427734 2498.167969,1922.404419  z"/>
<linearGradient id="grad1" x1="0%" y1="0%" x2="100%" y2="0%">
	<stop offset="0%" style="stop-color:rgb(52,211,153);stop-opacity:1"/>
	<stop offset="100%" style="stop-color:rgb(59,130,246);stop-opacity:1"/>
</linearGradient>
<path fill="#56BEED" opacity="1.000000" stroke="white" stroke-width="17" d=" M2713.196289,2076.988770   C2696.850342,2071.009766 2688.285400,2059.448486 2688.230713,2043.928833   C2688.174316,2027.925903 2697.630859,2013.189331 2712.376709,2008.477905   C2730.285156,2002.756104 2752.424072,2011.067261 2757.352295,2035.727661   C2761.161133,2054.786377 2747.760254,2074.692871 2728.612061,2078.011963   C2723.892822,2078.829834 2718.817871,2077.596436 2713.196289,2076.988770  z"/>

<linearGradient id="grad1" x1="0%" y1="0%" x2="100%" y2="0%">
	<stop offset="0%" style="stop-color:rgb(52,211,153);stop-opacity:1"/>
	<stop offset="100%" style="stop-color:rgb(59,130,246);stop-opacity:1"/>
</linearGradient>
<path fill="#56BEED" opacity="1.000000" stroke="white" stroke-width="17" d=" M2918.585693,1929.358643   C2905.561768,1914.429443 2906.803711,1902.947388 2915.910156,1887.860107   C2923.703613,1874.948120 2939.036377,1869.392090 2953.148926,1873.574097   C2967.462402,1877.815552 2979.924316,1892.554321 2979.483643,1906.539795   C2979.065674,1919.822266 2971.598633,1929.616455 2960.506104,1936.460327   C2950.082275,1942.891846 2939.200439,1943.448486 2928.464600,1937.184082   C2925.070312,1935.203369 2922.182617,1932.354248 2918.585693,1929.358643  z"/>
</svg>